<?xml version="1.0" encoding="utf-8"?>
<!-- Generator: Adobe Illustrator 16.0.0, SVG Export Plug-In . SVG Version: 6.00 Build 0)  -->
<!DOCTYPE svg PUBLIC "-//W3C//DTD SVG 1.1//EN" "http://www.w3.org/Graphics/SVG/1.1/DTD/svg11.dtd">
<svg version="1.1" id="Layer_1" xmlns="http://www.w3.org/2000/svg" xmlns:xlink="http://www.w3.org/1999/xlink" x="0px" y="0px"
	 width="170px" height="35px" viewBox="0 0 170 35" enable-background="new 0 0 170 35" xml:space="preserve">
<g display="none">
	<path display="inline" d="M106.972,28.005c0.655-1.622,1.294-3.196,1.93-4.771c0.882-2.179,1.766-4.357,2.648-6.537
		c0.965-2.385,1.932-4.769,2.893-7.156c0.077-0.195,0.185-0.246,0.385-0.244c1.479,0.008,2.959,0,4.437,0.004
		c1.841,0.006,3.685,0.027,5.526,0.024c0.295,0,0.444,0.073,0.579,0.354c1.023,2.111,2.071,4.211,3.109,6.316
		c0.529,1.073,1.053,2.146,1.609,3.289c0.197-0.442,0.37-0.828,0.538-1.216c0.95-2.217,1.898-4.434,2.849-6.651
		c0.269-0.629,0.534-1.26,0.813-1.883c0.039-0.086,0.157-0.194,0.238-0.194c2.703-0.009,5.407-0.008,8.155-0.008
		c-0.245,0.618-0.48,1.211-0.718,1.805c-1.631,4.112-3.261,8.226-4.893,12.337c-0.564,1.423-1.14,2.838-1.694,4.262
		c-0.087,0.221-0.197,0.296-0.441,0.295c-3.078-0.011-6.158-0.011-9.237-0.001c-0.237,0.001-0.357-0.073-0.46-0.286
		c-1.395-2.802-2.8-5.6-4.203-8.397c-0.303-0.605-0.611-1.203-0.94-1.84c-0.464,1.049-0.909,2.056-1.352,3.068
		c-0.684,1.568-1.365,3.136-2.048,4.703c-0.369,0.847-0.748,1.688-1.11,2.539c-0.065,0.155-0.146,0.211-0.311,0.211
		c-2.696-0.003-5.39-0.003-8.085-0.003C107.132,28.021,107.074,28.012,106.972,28.005z"/>
	<path display="inline" d="M67.792,15.104c-1.418,0-2.775,0-4.131,0c-1.803,0-3.606-0.003-5.41,0.004
		c-0.189,0.001-0.283-0.049-0.354-0.233c-0.45-1.14-1.311-1.739-2.511-1.902c-1.007-0.135-2.016-0.179-3.022-0.054
		c-1.771,0.22-3.367,0.855-4.69,2.087c-1.253,1.166-2.073,2.592-2.462,4.252c-0.299,1.272-0.088,2.418,1.025,3.253
		c0.632,0.474,1.366,0.725,2.138,0.855c2.05,0.35,4.02-0.021,5.921-0.765c0.797-0.312,1.414-0.914,1.957-1.649
		c-1.219,0-2.395,0-3.646,0c0.54-1.391,1.062-2.73,1.584-4.071c4.326,0,8.647,0,12.997,0c-1.431,3.509-2.854,6.996-4.282,10.497
		c-0.96-0.41-1.936-0.716-2.963-0.812c-0.701-0.065-1.414-0.1-2.117-0.065c-2.166,0.104-4.247,0.703-6.352,1.154
		c-1.561,0.335-3.134,0.614-4.732,0.567c-2.411-0.071-4.816-0.238-7.126-1.026c-1.159-0.394-2.225-0.947-3.053-1.888
		c-0.665-0.755-0.981-1.653-1.114-2.627c-0.297-2.191,0.344-4.17,1.427-6.032c1.265-2.174,2.954-3.966,5.04-5.364
		c1.516-1.016,3.216-1.652,4.969-2.139c1.555-0.432,3.133-0.743,4.744-0.85c1.229-0.079,2.462-0.189,3.691-0.168
		c1.369,0.025,2.739,0.165,4.106,0.288c1.667,0.151,3.31,0.466,4.919,0.925c1.373,0.389,2.523,1.14,3.212,2.438
		c0.393,0.738,0.485,1.553,0.369,2.387C67.883,14.463,67.84,14.762,67.792,15.104z"/>
	<path display="inline" d="M74.786,28.012c0.285-0.307,0.546-0.597,0.815-0.876c2.678-2.802,5.36-5.6,8.036-8.403
		c2.299-2.407,4.591-4.819,6.889-7.229c0.668-0.704,1.34-1.406,2.017-2.102c0.067-0.069,0.185-0.121,0.281-0.124
		c0.293-0.008,0.586,0.021,0.879,0.021c3.333,0.012,6.664,0.025,9.995,0.026c0.257,0,0.302,0.081,0.323,0.324
		c0.072,0.885,0.181,1.764,0.271,2.648c0.091,0.872,0.178,1.746,0.269,2.618c0.086,0.863,0.177,1.727,0.267,2.588
		c0.073,0.673,0.148,1.343,0.219,2.015c0.09,0.882,0.175,1.764,0.265,2.647c0.096,0.925,0.186,1.845,0.284,2.768
		c0.092,0.874,0.19,1.745,0.284,2.616c0.015,0.14,0.015,0.282,0.022,0.456c-0.124,0.005-0.23,0.016-0.336,0.016
		c-2.907,0-5.815,0-8.722,0.006c-0.237,0-0.361-0.036-0.405-0.306c-0.085-0.525-0.233-1.04-0.317-1.565
		c-0.043-0.246-0.146-0.298-0.377-0.298c-1.842,0.011-3.685,0.011-5.529,0.004c-1.255-0.004-2.51-0.013-3.765-0.033
		c-0.237-0.002-0.389,0.076-0.539,0.253c-0.534,0.62-1.082,1.23-1.632,1.836c-0.066,0.073-0.188,0.128-0.283,0.128
		c-3.028,0.009-6.057,0.005-9.085,0.005C74.884,28.05,74.858,28.034,74.786,28.012z M95.836,15.064
		c-0.023-0.009-0.046-0.02-0.07-0.027c-1.652,1.954-3.308,3.905-4.99,5.89c1.792,0,3.521,0,5.264,0
		C95.971,18.963,95.902,17.014,95.836,15.064z"/>
	<path display="inline" d="M30.361,12.822c-0.981-0.525-1.965-0.827-2.99-1.007c-1.224-0.216-2.449-0.329-3.699-0.245
		c-1.805,0.121-3.518,0.556-5.132,1.353c-1.422,0.703-2.672,1.651-3.812,2.749c-1.364,1.311-2.753,2.601-4.329,3.651
		c-1.186,0.792-2.457,1.433-3.889,1.649c-1.502,0.228-2.977,0.144-4.359-0.567c-0.111-0.058-0.22-0.199-0.251-0.325
		c-0.309-1.221-0.273-2.472-0.2-3.71c0.142-2.401,0.936-4.604,2.3-6.585c2.27-3.296,5.387-5.33,9.293-6.17
		c1.574-0.34,3.171-0.415,4.761-0.227c3.397,0.402,6.375,1.733,8.833,4.158c1.458,1.436,2.595,3.081,3.368,4.977
		C30.283,12.594,30.307,12.669,30.361,12.822z"/>
	<path display="inline" d="M144.649,27.929c1.797-4.59,3.576-9.135,5.371-13.719c-2.771,0-5.498,0-8.28,0
		c0.199-0.517,0.382-0.991,0.565-1.463c0.414-1.08,0.839-2.157,1.243-3.24c0.071-0.182,0.159-0.242,0.352-0.242
		c8.122,0.004,16.245,0.004,24.37,0.004c0.07,0,0.141,0.006,0.245,0.012c-0.195,0.575-0.38,1.135-0.572,1.692
		c-0.338,0.991-0.688,1.976-1.019,2.969c-0.071,0.222-0.183,0.287-0.411,0.286c-2.491-0.009-4.982-0.001-7.475-0.011
		c-0.238,0-0.354,0.066-0.443,0.293c-1.656,4.178-3.321,8.354-4.988,12.53c-0.115,0.289-0.171,0.681-0.39,0.828
		c-0.219,0.148-0.603,0.059-0.912,0.059c-2.432,0.003-4.862,0.001-7.295,0.001C144.906,27.929,144.797,27.929,144.649,27.929z"/>
	<path display="inline" d="M2.742,22.915c1.44,0.78,2.895,1.351,4.434,1.699c1.045,0.236,2.101,0.364,3.173,0.406
		c2.379,0.093,4.652-0.351,6.826-1.295c1.563-0.68,3.007-1.574,4.432-2.511c0.76-0.5,1.579-0.931,2.415-1.294
		c1.226-0.532,2.496-0.41,3.759-0.056c0.854,0.241,1.654,0.576,2.342,1.149c0.416,0.344,0.44,0.447,0.269,0.944
		c-0.762,2.203-2.073,4.042-3.752,5.632c-2.166,2.047-4.766,3.232-7.667,3.785c-1.213,0.23-2.443,0.246-3.681,0.152
		c-2.379-0.179-4.599-0.879-6.661-2.046c-2.642-1.497-4.589-3.654-5.84-6.429C2.778,23.028,2.771,23,2.742,22.915z"/>
	<path display="inline" d="M65.093,27.995c0.484-1.215,0.952-2.398,1.425-3.577c1.087-2.711,2.182-5.422,3.269-8.136
		c0.904-2.256,1.799-4.516,2.699-6.772c0.057-0.147,0.116-0.248,0.318-0.247c2.897,0.008,5.793,0.005,8.691,0.005
		c0.04,0,0.081,0.007,0.164,0.014c-0.187,0.467-0.366,0.919-0.547,1.369c-1.057,2.631-2.116,5.262-3.173,7.894
		c-1.241,3.09-2.479,6.179-3.728,9.267c-0.037,0.092-0.178,0.197-0.27,0.199c-2.897,0.009-5.794,0.009-8.692,0.006
		C65.211,28.021,65.174,28.01,65.093,27.995z"/>
	<path display="inline" d="M17.485,19.354c0.842-1.289,1.925-2.342,3.213-3.185c1.396-0.914,2.92-1.507,4.57-1.72
		c1.888-0.244,3.721-0.008,5.459,0.825c0.201,0.097,0.279,0.219,0.285,0.439c0.019,0.698,0.062,1.394,0.083,2.092
		c0.007,0.23-0.024,0.459-0.038,0.712c-0.541-0.237-1.06-0.474-1.586-0.696c-1.192-0.51-2.432-0.848-3.716-1.013
		c-1.56-0.196-3.047,0.09-4.501,0.634C19.927,17.939,18.68,18.58,17.485,19.354z"/>
	<path display="inline" d="M160.401,27.952c-1.341-0.026-2.275-1.013-2.271-2.259c0.004-1.392,1.128-2.306,2.396-2.266
		c1.158,0.035,2.164,1.1,2.144,2.312C162.651,26.961,161.622,27.963,160.401,27.952z M160.379,27.505
		c1.042,0.001,1.828-0.771,1.835-1.803c0.009-1-0.82-1.866-1.813-1.835c-1.041,0.032-1.821,0.78-1.826,1.832
		C158.572,26.711,159.381,27.505,160.379,27.505z"/>
	<path display="inline" d="M160.963,25.922c0.183,0.331,0.357,0.644,0.531,0.96c-0.489,0.104-0.492,0.101-0.707-0.29
		c-0.073-0.133-0.161-0.26-0.211-0.4c-0.105-0.284-0.289-0.362-0.601-0.256c0,0.309,0,0.626,0,0.967c-0.189,0-0.347,0-0.526,0
		c0-0.771-0.003-1.526,0.011-2.282c0.001-0.053,0.107-0.148,0.164-0.148c0.473,0.006,0.95,0.005,1.419,0.053
		c0.393,0.042,0.547,0.268,0.562,0.69c0.014,0.369-0.134,0.557-0.517,0.66C161.06,25.883,161.031,25.896,160.963,25.922z
		 M159.985,24.806c0,0.275,0,0.481,0,0.694c0.3,0,0.581,0.026,0.854-0.014c0.1-0.015,0.231-0.183,0.245-0.294
		c0.011-0.093-0.115-0.271-0.205-0.291C160.599,24.838,160.308,24.836,159.985,24.806z"/>
</g>
<g display="none">
	<g display="inline">
		<path fill="#777777" d="M13.248,0.065V35h44.403V0.065H13.248L13.248,0.065z M54.075,31.217h-37.04V3.854h37.04V31.217
			L54.075,31.217z"/>
		<polygon fill="#777777" points="18.955,28.312 26.623,20.253 29.495,21.497 38.558,11.845 42.129,16.114 43.737,15.142 
			52.45,28.312 		"/>
		<circle fill="#777777" cx="27.812" cy="10.782" r="3.349"/>
	</g>
	<g display="inline" enable-background="new    ">
		<path fill="#777777" d="M71.623,27.635h11.42v3.964H66.477V5.938h5.146V27.635z"/>
		<path fill="#777777" d="M105.6,21.078c0,3.147-0.995,5.751-2.987,7.806c-1.991,2.056-4.579,3.084-7.763,3.084
			c-3.16,0-5.728-1.028-7.701-3.084c-1.973-2.055-2.96-4.658-2.96-7.806v-4.619c0-3.136,0.983-5.736,2.952-7.798
			c1.968-2.062,4.532-3.093,7.693-3.093c3.183,0,5.773,1.03,7.771,3.093c1.997,2.062,2.996,4.662,2.996,7.798V21.078z
			 M100.453,16.438c0-2.002-0.499-3.644-1.497-4.926c-0.999-1.284-2.373-1.925-4.123-1.925c-1.752,0-3.108,0.639-4.072,1.917
			s-1.443,2.921-1.443,4.935v4.661c0,2.038,0.485,3.697,1.461,4.979c0.977,1.285,2.331,1.927,4.071,1.927
			c1.763,0,3.136-0.642,4.123-1.927c0.988-1.281,1.48-2.94,1.48-4.979V16.438z"/>
		<path fill="#777777" d="M129.321,28.091c-0.766,1.012-1.954,1.909-3.568,2.696c-1.616,0.787-3.657,1.181-6.125,1.181
			c-3.136,0-5.698-0.976-7.685-2.924c-1.983-1.952-2.978-4.482-2.978-7.597v-5.358c0-3.102,0.955-5.63,2.865-7.587
			c1.908-1.956,4.366-2.934,7.374-2.934c3.126,0,5.52,0.761,7.181,2.282c1.663,1.521,2.513,3.522,2.547,6.001l-0.034,0.105h-4.847
			c-0.096-1.363-0.53-2.44-1.305-3.234c-0.774-0.793-1.908-1.189-3.401-1.189c-1.574,0-2.843,0.608-3.808,1.823
			c-0.964,1.215-1.442,2.778-1.442,4.692v5.387c0,1.949,0.498,3.532,1.497,4.747c0.998,1.215,2.343,1.822,4.035,1.822
			c1.198,0,2.161-0.124,2.891-0.369c0.728-0.246,1.281-0.551,1.657-0.913v-4.747h-4.548v-3.56h9.693V28.091z"/>
		<path fill="#777777" d="M154.381,21.078c0,3.147-0.995,5.751-2.987,7.806c-1.99,2.056-4.578,3.084-7.763,3.084
			c-3.16,0-5.728-1.028-7.7-3.084c-1.976-2.055-2.961-4.658-2.961-7.806v-4.619c0-3.136,0.983-5.736,2.952-7.798
			c1.967-2.062,4.531-3.093,7.692-3.093c3.183,0,5.773,1.03,7.771,3.093c1.996,2.062,2.995,4.662,2.995,7.798V21.078z
			 M149.234,16.438c0-2.002-0.499-3.644-1.497-4.926c-0.999-1.284-2.373-1.925-4.123-1.925c-1.752,0-3.107,0.639-4.072,1.917
			c-0.964,1.277-1.444,2.921-1.444,4.935v4.661c0,2.038,0.488,3.697,1.462,4.979c0.977,1.285,2.332,1.927,4.071,1.927
			c1.763,0,3.137-0.642,4.123-1.927c0.988-1.281,1.48-2.94,1.48-4.979V16.438z"/>
	</g>
</g>
<g>
	<g enable-background="new    ">
		<path fill="#FFFFFF" d="M37.232,0.649l0.546,8.115h-0.546c-0.728-2.429-1.766-4.178-3.115-5.246
			c-1.35-1.068-2.969-1.602-4.858-1.602c-1.584,0-3.016,0.402-4.295,1.206c-1.279,0.804-2.286,2.086-3.019,3.846
			s-1.1,3.949-1.1,6.565c0,2.16,0.346,4.031,1.039,5.616c0.692,1.584,1.734,2.799,3.125,3.644s2.978,1.268,4.761,1.268
			c1.549,0,2.916-0.332,4.102-0.995c1.185-0.663,2.488-1.98,3.908-3.951l0.545,0.352c-1.197,2.124-2.593,3.679-4.189,4.665
			c-1.596,0.985-3.492,1.479-5.686,1.479c-3.955,0-7.018-1.467-9.188-4.4c-1.62-2.184-2.429-4.753-2.429-7.71
			c0-2.382,0.534-4.57,1.602-6.565s2.538-3.541,4.41-4.638c1.872-1.097,3.917-1.646,6.134-1.646c1.725,0,3.426,0.422,5.104,1.268
			c0.493,0.258,0.845,0.387,1.056,0.387c0.317,0,0.593-0.111,0.828-0.334c0.305-0.317,0.522-0.757,0.651-1.32H37.232z"/>
		<path fill="#FFFFFF" d="M60.238,18.463l0.581,0.123l-2.042,6.478H40.295v-0.651h0.898c1.009,0,1.73-0.328,2.165-0.985
			c0.246-0.376,0.37-1.244,0.37-2.605V5.419c0-1.49-0.165-2.423-0.493-2.798c-0.458-0.517-1.138-0.775-2.042-0.775h-0.898V1.195
			h10.808v0.651c-1.268-0.011-2.157,0.106-2.667,0.352c-0.51,0.247-0.86,0.558-1.047,0.933c-0.188,0.375-0.282,1.273-0.282,2.693
			v14.997c0,0.975,0.094,1.644,0.282,2.007c0.141,0.246,0.358,0.429,0.651,0.546c0.293,0.117,1.208,0.176,2.746,0.176h1.743
			c1.831,0,3.115-0.135,3.855-0.405c0.739-0.27,1.414-0.748,2.024-1.435S59.628,19.941,60.238,18.463z"/>
		<path fill="#FFFFFF" d="M78.087,17.072h-9.241l-1.62,3.767c-0.399,0.927-0.599,1.619-0.599,2.077c0,0.364,0.173,0.684,0.52,0.959
			c0.346,0.276,1.094,0.455,2.244,0.537v0.651h-7.516v-0.651c0.997-0.176,1.643-0.404,1.936-0.687
			c0.599-0.563,1.261-1.707,1.989-3.433l8.396-19.644h0.616l8.309,19.856c0.669,1.596,1.276,2.631,1.822,3.106
			s1.306,0.742,2.279,0.801v0.651h-9.417v-0.651c0.951-0.047,1.593-0.205,1.927-0.476c0.334-0.27,0.502-0.598,0.502-0.985
			c0-0.517-0.235-1.332-0.704-2.446L78.087,17.072z M77.594,15.77l-4.048-9.646l-4.154,9.646H77.594z"/>
		<path fill="#FFFFFF" d="M111.989,25.063h-6.372l-8.079-11.16c-0.599,0.024-1.086,0.036-1.461,0.036
			c-0.152,0-0.317-0.003-0.493-0.009s-0.357-0.015-0.546-0.027v6.936c0,1.502,0.165,2.436,0.493,2.799
			c0.446,0.517,1.115,0.774,2.007,0.774h0.933v0.651H88.244v-0.651h0.897c1.009,0,1.73-0.328,2.165-0.985
			c0.247-0.364,0.37-1.227,0.37-2.588V5.419c0-1.502-0.165-2.435-0.493-2.798c-0.458-0.517-1.139-0.775-2.042-0.775h-0.897V1.195
			h8.695c2.535,0,4.403,0.185,5.606,0.554s2.224,1.05,3.062,2.042s1.259,2.174,1.259,3.547c0,1.467-0.479,2.74-1.435,3.82
			s-2.438,1.842-4.444,2.288l4.929,6.847c1.126,1.573,2.095,2.617,2.904,3.134s1.866,0.845,3.168,0.985V25.063z M95.038,12.794
			c0.224,0,0.417,0.003,0.581,0.009c0.164,0.006,0.3,0.009,0.405,0.009c2.276,0,3.992-0.493,5.148-1.479s1.734-2.241,1.734-3.767
			c0-1.49-0.467-2.702-1.399-3.635c-0.934-0.933-2.169-1.399-3.706-1.399c-0.681,0-1.602,0.112-2.764,0.334V12.794z"/>
		<path fill="#FFFFFF" d="M122.445,11.827l8.802,8.749c1.443,1.443,2.675,2.426,3.696,2.948c1.021,0.522,2.042,0.818,3.062,0.889
			v0.651h-11.354v-0.651c0.681,0,1.171-0.114,1.47-0.343c0.3-0.229,0.449-0.484,0.449-0.766c0-0.282-0.056-0.534-0.167-0.758
			c-0.112-0.223-0.479-0.639-1.101-1.249l-8.238-8.15v7.692c0,1.209,0.076,2.007,0.229,2.394c0.117,0.294,0.363,0.546,0.739,0.757
			c0.504,0.282,1.038,0.423,1.602,0.423h0.81v0.651h-10.174v-0.651h0.845c0.985,0,1.701-0.287,2.147-0.862
			c0.281-0.376,0.423-1.279,0.423-2.711V5.419c0-1.208-0.077-2.012-0.229-2.411c-0.117-0.282-0.357-0.528-0.722-0.739
			c-0.517-0.282-1.056-0.423-1.619-0.423h-0.845V1.195h10.174v0.651h-0.81c-0.552,0-1.086,0.135-1.602,0.405
			c-0.364,0.188-0.616,0.469-0.757,0.845s-0.212,1.15-0.212,2.323v7.305c0.235-0.223,1.039-0.968,2.412-2.235
			c3.485-3.192,5.592-5.322,6.319-6.39c0.316-0.469,0.475-0.88,0.475-1.232c0-0.27-0.123-0.507-0.369-0.713
			c-0.246-0.205-0.663-0.308-1.25-0.308h-0.546V1.195h8.767v0.651c-0.517,0.012-0.986,0.083-1.408,0.211
			c-0.423,0.129-0.939,0.378-1.549,0.748c-0.61,0.37-1.362,0.965-2.254,1.787c-0.258,0.235-1.449,1.438-3.573,3.608L122.445,11.827z
			"/>
		<path fill="#FFFFFF" d="M154.235,0.649v8.255h-0.651c-0.211-1.584-0.589-2.845-1.135-3.784s-1.323-1.684-2.332-2.236
			c-1.01-0.551-2.054-0.827-3.134-0.827c-1.221,0-2.229,0.373-3.027,1.118c-0.798,0.746-1.197,1.593-1.197,2.543
			c0,0.728,0.252,1.391,0.757,1.989c0.728,0.88,2.458,2.054,5.193,3.521c2.229,1.197,3.752,2.115,4.567,2.755
			s1.443,1.394,1.884,2.262c0.439,0.869,0.66,1.778,0.66,2.728c0,1.808-0.702,3.365-2.104,4.674
			c-1.402,1.309-3.207,1.963-5.413,1.963c-0.692,0-1.344-0.053-1.954-0.158c-0.363-0.06-1.117-0.273-2.262-0.643
			c-1.145-0.37-1.869-0.555-2.174-0.555c-0.294,0-0.525,0.088-0.695,0.264s-0.297,0.54-0.379,1.092h-0.65v-8.186h0.65
			c0.306,1.714,0.716,2.996,1.232,3.847s1.306,1.558,2.368,2.121c1.062,0.562,2.227,0.845,3.493,0.845
			c1.467,0,2.626-0.388,3.477-1.162s1.276-1.689,1.276-2.746c0-0.586-0.161-1.179-0.484-1.777c-0.322-0.599-0.824-1.156-1.505-1.672
			c-0.457-0.352-1.707-1.1-3.749-2.244c-2.042-1.145-3.494-2.057-4.356-2.737s-1.517-1.432-1.963-2.253
			c-0.446-0.821-0.669-1.725-0.669-2.71c0-1.713,0.657-3.189,1.972-4.427c1.314-1.238,2.986-1.857,5.017-1.857
			c1.268,0,2.611,0.311,4.031,0.933c0.657,0.293,1.12,0.44,1.391,0.44c0.305,0,0.555-0.091,0.748-0.273
			c0.193-0.182,0.349-0.548,0.466-1.1H154.235z"/>
	</g>
	<g enable-background="new    ">
		<path fill="#FFFFFF" d="M95.652,27.669l0.076,1.607h-0.192c-0.037-0.283-0.088-0.485-0.151-0.606
			c-0.104-0.195-0.243-0.34-0.417-0.433s-0.401-0.139-0.685-0.139h-0.966v5.235c0,0.421,0.046,0.684,0.137,0.788
			c0.128,0.142,0.325,0.213,0.592,0.213h0.237v0.187h-2.906v-0.187h0.243c0.289,0,0.495-0.088,0.616-0.264
			c0.074-0.107,0.111-0.354,0.111-0.737v-5.235h-0.824c-0.319,0-0.547,0.023-0.682,0.07c-0.176,0.064-0.325,0.188-0.45,0.369
			s-0.198,0.428-0.223,0.738h-0.191l0.081-1.607H95.652z"/>
		<path fill="#FFFFFF" d="M98.114,30.848h3.184v-1.961c0-0.351-0.022-0.581-0.066-0.692c-0.033-0.084-0.104-0.156-0.212-0.217
			c-0.145-0.081-0.298-0.121-0.46-0.121h-0.242v-0.188h2.931v0.188h-0.242c-0.162,0-0.315,0.038-0.46,0.116
			c-0.108,0.054-0.182,0.135-0.22,0.244c-0.039,0.11-0.059,0.333-0.059,0.67v4.422c0,0.347,0.022,0.576,0.065,0.688
			c0.034,0.084,0.104,0.156,0.208,0.217c0.147,0.081,0.303,0.122,0.465,0.122h0.242v0.187h-2.931v-0.187h0.242
			c0.279,0,0.483-0.083,0.611-0.248c0.084-0.107,0.127-0.367,0.127-0.778v-2.087h-3.184v2.087c0,0.347,0.021,0.576,0.065,0.688
			c0.033,0.084,0.104,0.156,0.212,0.217c0.145,0.081,0.298,0.122,0.46,0.122H99.1v0.187h-2.937v-0.187h0.243
			c0.282,0,0.488-0.083,0.616-0.248c0.081-0.107,0.121-0.367,0.121-0.778v-4.422c0-0.351-0.021-0.581-0.065-0.692
			c-0.034-0.084-0.104-0.156-0.207-0.217c-0.148-0.081-0.304-0.121-0.465-0.121h-0.243v-0.188H99.1v0.188h-0.248
			c-0.162,0-0.315,0.038-0.46,0.116c-0.104,0.054-0.177,0.135-0.217,0.244c-0.041,0.11-0.061,0.333-0.061,0.67V30.848z"/>
		<path fill="#FFFFFF" d="M105.623,28.043v2.709h1.506c0.391,0,0.651-0.06,0.783-0.177c0.175-0.155,0.272-0.429,0.293-0.819h0.188
			v2.386h-0.188c-0.047-0.334-0.095-0.548-0.142-0.643c-0.061-0.117-0.16-0.21-0.298-0.277c-0.139-0.067-0.351-0.102-0.637-0.102
			h-1.506v2.26c0,0.303,0.014,0.487,0.04,0.553c0.027,0.065,0.074,0.118,0.142,0.157c0.067,0.038,0.195,0.058,0.384,0.058h1.163
			c0.387,0,0.668-0.027,0.844-0.081c0.175-0.054,0.344-0.16,0.505-0.318c0.209-0.209,0.423-0.523,0.642-0.944h0.202l-0.591,1.718
			h-5.281v-0.187h0.243c0.161,0,0.314-0.039,0.46-0.116c0.107-0.055,0.181-0.135,0.22-0.243c0.038-0.107,0.058-0.328,0.058-0.662
			v-4.452c0-0.435-0.044-0.702-0.131-0.804c-0.121-0.134-0.323-0.201-0.606-0.201h-0.243v-0.188h5.281l0.076,1.501h-0.197
			c-0.071-0.36-0.149-0.608-0.235-0.743s-0.213-0.237-0.382-0.308c-0.135-0.051-0.372-0.076-0.712-0.076H105.623z"/>
	</g>
	<g enable-background="new    ">
		<path fill="#FFFFFF" d="M116.973,30.888c0.65,0.152,1.106,0.336,1.37,0.551c0.377,0.307,0.565,0.704,0.565,1.193
			c0,0.515-0.207,0.941-0.621,1.278c-0.509,0.407-1.249,0.611-2.219,0.611h-3.481v-0.187c0.316,0,0.531-0.03,0.644-0.089
			c0.113-0.059,0.192-0.136,0.238-0.229c0.045-0.095,0.067-0.327,0.067-0.698v-4.446c0-0.371-0.022-0.604-0.067-0.7
			c-0.046-0.096-0.126-0.173-0.24-0.23c-0.115-0.057-0.329-0.085-0.642-0.085v-0.188h3.284c0.785,0,1.341,0.07,1.668,0.21
			c0.326,0.14,0.584,0.349,0.773,0.626c0.188,0.278,0.282,0.574,0.282,0.888c0,0.33-0.119,0.624-0.358,0.882
			S117.576,30.736,116.973,30.888z M115.134,31.146v2.198l-0.006,0.253c0,0.182,0.047,0.319,0.14,0.412s0.229,0.139,0.411,0.139
			c0.27,0,0.519-0.06,0.746-0.18c0.228-0.119,0.401-0.293,0.522-0.521c0.122-0.227,0.183-0.48,0.183-0.76
			c0-0.32-0.074-0.607-0.223-0.862c-0.148-0.254-0.353-0.432-0.611-0.533C116.036,31.191,115.648,31.143,115.134,31.146z
			 M115.134,30.752c0.478,0,0.831-0.055,1.059-0.162s0.401-0.26,0.522-0.455s0.183-0.444,0.183-0.748
			c0-0.303-0.061-0.551-0.18-0.745c-0.12-0.193-0.291-0.341-0.513-0.442c-0.223-0.101-0.58-0.149-1.071-0.146V30.752z"/>
		<path fill="#FFFFFF" d="M123.578,32.571h-2.421l-0.288,0.667c-0.094,0.222-0.142,0.405-0.142,0.551
			c0,0.191,0.078,0.333,0.232,0.424c0.092,0.055,0.315,0.095,0.673,0.122v0.187h-2.279v-0.187c0.246-0.037,0.448-0.14,0.606-0.307
			c0.158-0.166,0.354-0.511,0.586-1.033l2.451-5.468h0.096l2.472,5.619c0.235,0.533,0.429,0.868,0.581,1.006
			c0.114,0.104,0.275,0.165,0.484,0.183v0.187h-3.314v-0.187h0.137c0.266,0,0.452-0.037,0.561-0.111
			c0.074-0.054,0.111-0.132,0.111-0.232c0-0.061-0.011-0.123-0.03-0.188c-0.007-0.03-0.058-0.156-0.152-0.379L123.578,32.571z
			 M123.406,32.197l-1.021-2.36l-1.052,2.36H123.406z"/>
		<path fill="#FFFFFF" d="M131.057,30.292l2.41,3.017c0.341,0.425,0.634,0.713,0.88,0.864c0.179,0.107,0.367,0.162,0.565,0.162
			v0.187h-3.567v-0.187c0.226-0.021,0.371-0.056,0.438-0.106c0.065-0.051,0.099-0.113,0.099-0.188c0-0.141-0.155-0.407-0.466-0.798
			l-1.571-1.977l-0.253,0.213v1.869c0,0.357,0.021,0.58,0.061,0.668c0.041,0.087,0.118,0.162,0.233,0.225
			c0.114,0.062,0.298,0.094,0.551,0.094v0.187h-3.457v-0.187h0.228c0.198,0,0.358-0.036,0.48-0.106
			c0.087-0.047,0.154-0.128,0.201-0.243c0.037-0.08,0.056-0.293,0.056-0.637v-4.507c0-0.351-0.019-0.569-0.056-0.657
			s-0.111-0.164-0.225-0.23c-0.112-0.065-0.265-0.098-0.457-0.098h-0.228v-0.188h3.411v0.188c-0.232,0-0.409,0.033-0.53,0.101
			c-0.088,0.047-0.157,0.126-0.208,0.237c-0.04,0.084-0.061,0.3-0.061,0.647v2.132l2.542-2.057c0.354-0.286,0.531-0.516,0.531-0.688
			c0-0.128-0.073-0.229-0.218-0.303c-0.074-0.037-0.258-0.061-0.551-0.07v-0.188h2.674v0.188c-0.239,0.017-0.428,0.06-0.563,0.128
			c-0.137,0.069-0.451,0.303-0.943,0.7L131.057,30.292z"/>
		<path fill="#FFFFFF" d="M137.617,28.063v2.789h0.136c0.435,0,0.75-0.137,0.945-0.409s0.32-0.676,0.374-1.208h0.191v3.588h-0.191
			c-0.041-0.391-0.126-0.711-0.255-0.96c-0.13-0.249-0.281-0.417-0.453-0.503s-0.421-0.129-0.747-0.129v1.931
			c0,0.377,0.016,0.608,0.048,0.692c0.031,0.084,0.092,0.153,0.179,0.207c0.088,0.054,0.229,0.081,0.425,0.081h0.409
			c0.641,0,1.153-0.148,1.539-0.444c0.386-0.297,0.663-0.748,0.831-1.354h0.188l-0.309,2.178h-5.923v-0.187h0.228
			c0.199,0,0.358-0.036,0.48-0.106c0.087-0.047,0.154-0.128,0.202-0.243c0.037-0.08,0.056-0.293,0.056-0.637v-4.507
			c0-0.311-0.009-0.501-0.025-0.571c-0.034-0.118-0.097-0.209-0.188-0.273c-0.128-0.094-0.303-0.141-0.525-0.141h-0.228v-0.188
			h5.736v2.026h-0.192c-0.098-0.495-0.235-0.851-0.412-1.066c-0.177-0.215-0.427-0.374-0.75-0.475
			c-0.189-0.061-0.543-0.091-1.062-0.091H137.617z"/>
		<path fill="#FFFFFF" d="M144.448,31.398v1.92c0,0.371,0.022,0.604,0.068,0.7c0.045,0.096,0.125,0.173,0.24,0.23
			c0.114,0.057,0.328,0.086,0.642,0.086v0.187h-3.507v-0.187c0.316,0,0.531-0.03,0.644-0.089c0.113-0.059,0.192-0.136,0.238-0.229
			c0.045-0.095,0.067-0.327,0.067-0.698v-4.446c0-0.371-0.022-0.604-0.067-0.7c-0.046-0.096-0.126-0.173-0.24-0.23
			c-0.114-0.057-0.329-0.085-0.642-0.085v-0.188h3.184c0.828,0,1.435,0.058,1.819,0.172c0.384,0.114,0.697,0.326,0.939,0.634
			c0.243,0.309,0.364,0.67,0.364,1.084c0,0.506-0.183,0.924-0.546,1.254c-0.232,0.209-0.558,0.365-0.976,0.47l1.647,2.319
			c0.216,0.3,0.369,0.487,0.46,0.562c0.138,0.104,0.298,0.161,0.48,0.172v0.187h-2.158l-2.208-3.123H144.448z M144.448,28.038v3.002
			h0.288c0.468,0,0.818-0.043,1.051-0.129s0.416-0.241,0.549-0.465c0.133-0.225,0.199-0.517,0.199-0.877
			c0-0.522-0.122-0.908-0.366-1.157c-0.244-0.25-0.638-0.374-1.18-0.374H144.448z"/>
		<path fill="#FFFFFF" d="M154.035,27.513l0.056,2.284h-0.207c-0.098-0.573-0.338-1.034-0.721-1.383
			c-0.382-0.349-0.796-0.522-1.24-0.522c-0.344,0-0.615,0.092-0.816,0.275c-0.2,0.184-0.301,0.395-0.301,0.634
			c0,0.151,0.036,0.286,0.106,0.404c0.098,0.158,0.255,0.315,0.47,0.47c0.158,0.111,0.524,0.309,1.097,0.592
			c0.802,0.394,1.343,0.767,1.622,1.116c0.276,0.351,0.415,0.752,0.415,1.203c0,0.573-0.224,1.065-0.67,1.479
			c-0.446,0.412-1.013,0.619-1.7,0.619c-0.216,0-0.42-0.022-0.611-0.066c-0.192-0.044-0.434-0.126-0.723-0.247
			c-0.162-0.067-0.295-0.102-0.399-0.102c-0.088,0-0.181,0.034-0.278,0.102s-0.177,0.17-0.237,0.308h-0.187v-2.587h0.187
			c0.148,0.728,0.434,1.283,0.856,1.665c0.423,0.383,0.879,0.573,1.367,0.573c0.377,0,0.678-0.103,0.902-0.308
			c0.224-0.206,0.336-0.445,0.336-0.718c0-0.162-0.043-0.318-0.129-0.47c-0.086-0.152-0.217-0.296-0.392-0.433
			c-0.176-0.137-0.485-0.313-0.93-0.533c-0.624-0.307-1.072-0.567-1.345-0.783s-0.482-0.456-0.629-0.723
			c-0.146-0.266-0.22-0.559-0.22-0.879c0-0.546,0.2-1.011,0.601-1.395c0.401-0.385,0.906-0.576,1.517-0.576
			c0.223,0,0.438,0.026,0.646,0.08c0.158,0.041,0.352,0.116,0.579,0.226s0.387,0.164,0.478,0.164c0.087,0,0.156-0.027,0.207-0.081
			s0.098-0.184,0.142-0.389H154.035z"/>
	</g>
</g>
</svg>
