<?xml version="1.0" encoding="utf-8"?>
<!-- Generator: Adobe Illustrator 16.0.0, SVG Export Plug-In . SVG Version: 6.00 Build 0)  -->
<!DOCTYPE svg PUBLIC "-//W3C//DTD SVG 1.1//EN" "http://www.w3.org/Graphics/SVG/1.1/DTD/svg11.dtd">
<svg version="1.1" id="Layer_1" xmlns="http://www.w3.org/2000/svg" xmlns:xlink="http://www.w3.org/1999/xlink" x="0px" y="0px"
	 width="100px" height="100px" viewBox="0 0 100 100" enable-background="new 0 0 100 100" xml:space="preserve">
<rect x="-10.174" y="9.934" fill="none" width="0.12" height="13.533"/>
<g>
	<path fill="none" stroke="#244356" stroke-width="4" stroke-linecap="round" stroke-linejoin="round" stroke-miterlimit="10" d="
		M55,64c2.02,1.318,7.758,2.092,13,2.041"/>
	<path fill="none" stroke="#244356" stroke-width="4" stroke-linecap="round" stroke-linejoin="round" stroke-miterlimit="10" d="
		M45,64c-2.02,1.318-7.757,2.092-13,2.041"/>
	
		<polyline fill="none" stroke="#244356" stroke-width="4" stroke-linecap="round" stroke-linejoin="round" stroke-miterlimit="10" points="
		46,21 46,3 54,3 54,36 46,36 46,31 	"/>
	<path fill="none" stroke="#244356" stroke-width="4" stroke-linecap="round" stroke-linejoin="round" stroke-miterlimit="10" d="
		M45,63.75c0-2.762,2.239-4.75,5-4.75c2.762,0,5,1.988,5,4.75V69H45V63.75z"/>
	
		<circle fill="none" stroke="#244356" stroke-width="4" stroke-linecap="round" stroke-linejoin="round" stroke-miterlimit="10" cx="33" cy="86" r="3"/>
	
		<circle fill="none" stroke="#244356" stroke-width="4" stroke-linecap="round" stroke-linejoin="round" stroke-miterlimit="10" cx="67" cy="86" r="3"/>
	
		<line fill="none" stroke="#244356" stroke-width="4" stroke-linecap="round" stroke-linejoin="round" stroke-miterlimit="10" x1="36" y1="86" x2="64" y2="86"/>
	
		<line fill="none" stroke="#244356" stroke-width="4" stroke-linecap="round" stroke-linejoin="round" stroke-miterlimit="10" x1="34.829" y1="83.172" x2="45" y2="68"/>
	
		<line fill="none" stroke="#244356" stroke-width="4" stroke-linecap="round" stroke-linejoin="round" stroke-miterlimit="10" x1="65.172" y1="83.172" x2="55" y2="68"/>
	
		<line fill="none" stroke="#244356" stroke-width="4" stroke-linecap="round" stroke-linejoin="round" stroke-miterlimit="10" x1="50" y1="69" x2="50" y2="86"/>
	
		<line fill="none" stroke="#244356" stroke-width="4" stroke-linecap="round" stroke-linejoin="round" stroke-miterlimit="10" x1="44" y1="70" x2="44" y2="85"/>
	
		<line fill="none" stroke="#244356" stroke-width="4" stroke-linecap="round" stroke-linejoin="round" stroke-miterlimit="10" x1="56" y1="70" x2="56" y2="86"/>
	
		<line fill="none" stroke="#244356" stroke-width="4" stroke-linecap="round" stroke-linejoin="round" stroke-miterlimit="10" x1="62" y1="79" x2="62" y2="86"/>
	
		<line fill="none" stroke="#244356" stroke-width="4" stroke-linecap="round" stroke-linejoin="round" stroke-miterlimit="10" x1="38" y1="79" x2="38" y2="86"/>
	<path fill="none" stroke="#244356" stroke-width="4" stroke-linecap="round" stroke-linejoin="round" stroke-miterlimit="10" d="
		M43.882,44.278c1.069,1.177,1.037,5.333,1.037,5.333s0.143,5.395-1.037,6.176c-3.712,2.457-17.58,3.178-20.714,0
		c-3.134-3.178,0.199-8.722,4.013-11.509C31.296,41.27,40.88,40.972,43.882,44.278z"/>
	<path fill="none" stroke="#244356" stroke-width="4" stroke-linecap="round" stroke-linejoin="round" stroke-miterlimit="10" d="
		M55.968,44.278c-1.069,1.177-1.037,5.333-1.037,5.333s-0.144,5.395,1.037,6.176c3.712,2.457,17.579,3.178,20.714,0
		s-0.199-8.722-4.013-11.509C68.554,41.27,58.971,40.972,55.968,44.278z"/>
	
		<line fill="none" stroke="#244356" stroke-width="4" stroke-linecap="round" stroke-miterlimit="10" x1="69.121" y1="83.879" x2="76.834" y2="70.586"/>
	<path fill="none" stroke="#244356" stroke-width="4" stroke-linecap="round" stroke-miterlimit="10" d="M28.911,20.433
		c4.31-4.665,10.376-7.835,17.089-8.804"/>
	<path fill="none" stroke="#244356" stroke-width="4" stroke-linecap="round" stroke-miterlimit="10" d="M23.873,28.227
		c0.399-0.943,0.85-1.857,1.349-2.74"/>
	
		<line fill="none" stroke="#244356" stroke-width="4" stroke-linecap="round" stroke-miterlimit="10" x1="30.879" y1="83.879" x2="23.167" y2="70.586"/>
	<path fill="none" stroke="#244356" stroke-width="4" stroke-linecap="round" stroke-miterlimit="10" d="M78.098,83.957
		C85,83,93.903,79.838,95.226,79.148"/>
	<path fill="none" stroke="#244356" stroke-width="4" stroke-linecap="round" stroke-miterlimit="10" d="M22.226,83.957
		C15.324,83,6.098,79.762,4.776,79.074"/>
	<path fill="none" stroke="#244356" stroke-width="4" stroke-linecap="round" stroke-miterlimit="10" d="M85,46
		c0,0-8.334-18.167-31-10"/>
	<path fill="none" stroke="#244356" stroke-width="4" stroke-linecap="round" stroke-miterlimit="10" d="M15,46
		c0,0,8.333-18.167,31-10"/>
	<path fill="none" stroke="#244356" stroke-width="4" stroke-linecap="round" stroke-miterlimit="10" d="M46,5.23
		C28.568,7.234,15,22.037,15,40v6L5.364,77.344c-1.781,4.781-2.333,9.572,1.01,11.312C16.157,93.749,38.893,95,49.995,95
		c11.102,0,33.835-1.251,43.618-6.344c3.344-1.74,2.782-6.531,1.002-11.312L84.959,46L85,41.031L84.959,40
		C84.959,22.037,71.427,7.234,54,5.231"/>
</g>
</svg>
