<?xml version="1.0" encoding="utf-8"?>
<!-- Generator: Adobe Illustrator 16.0.0, SVG Export Plug-In . SVG Version: 6.00 Build 0)  -->
<!DOCTYPE svg PUBLIC "-//W3C//DTD SVG 1.1//EN" "http://www.w3.org/Graphics/SVG/1.1/DTD/svg11.dtd">
<svg version="1.1" id="Layer_1" xmlns="http://www.w3.org/2000/svg" xmlns:xlink="http://www.w3.org/1999/xlink" x="0px" y="0px"
	 width="170px" height="35px" viewBox="0 0 170 35" enable-background="new 0 0 170 35" xml:space="preserve">
<g>
	<path d="M106.972,28.005c0.655-1.622,1.294-3.196,1.93-4.771c0.882-2.179,1.766-4.357,2.648-6.537
		c0.965-2.385,1.932-4.769,2.893-7.156c0.077-0.195,0.185-0.246,0.385-0.244c1.479,0.008,2.959,0,4.437,0.004
		c1.841,0.006,3.685,0.027,5.526,0.024c0.295,0,0.444,0.073,0.579,0.354c1.023,2.111,2.071,4.211,3.109,6.316
		c0.529,1.073,1.053,2.146,1.609,3.289c0.197-0.442,0.37-0.828,0.538-1.216c0.95-2.217,1.898-4.434,2.849-6.651
		c0.269-0.629,0.534-1.26,0.813-1.883c0.039-0.086,0.157-0.194,0.238-0.194c2.703-0.009,5.407-0.008,8.155-0.008
		c-0.245,0.618-0.48,1.211-0.718,1.805c-1.631,4.112-3.261,8.226-4.893,12.337c-0.564,1.423-1.14,2.838-1.694,4.262
		c-0.087,0.221-0.197,0.296-0.441,0.295c-3.078-0.011-6.158-0.011-9.237-0.001c-0.237,0.001-0.357-0.073-0.46-0.286
		c-1.395-2.802-2.8-5.6-4.203-8.397c-0.303-0.605-0.611-1.203-0.94-1.84c-0.464,1.049-0.909,2.056-1.352,3.068
		c-0.684,1.568-1.365,3.136-2.048,4.703c-0.369,0.847-0.748,1.688-1.11,2.539c-0.065,0.155-0.146,0.211-0.311,0.211
		c-2.696-0.003-5.39-0.003-8.085-0.003C107.132,28.021,107.074,28.012,106.972,28.005z"/>
	<path d="M67.792,15.104c-1.418,0-2.775,0-4.131,0c-1.803,0-3.606-0.003-5.41,0.004c-0.189,0.001-0.283-0.049-0.354-0.233
		c-0.45-1.14-1.311-1.739-2.511-1.902c-1.007-0.135-2.016-0.179-3.022-0.054c-1.771,0.22-3.367,0.855-4.69,2.087
		c-1.253,1.166-2.073,2.592-2.462,4.252c-0.299,1.272-0.088,2.418,1.025,3.253c0.632,0.474,1.366,0.725,2.138,0.855
		c2.05,0.35,4.02-0.021,5.921-0.765c0.797-0.312,1.414-0.914,1.957-1.649c-1.219,0-2.395,0-3.646,0
		c0.54-1.391,1.062-2.73,1.584-4.071c4.326,0,8.647,0,12.997,0c-1.431,3.509-2.854,6.996-4.282,10.497
		c-0.96-0.41-1.936-0.716-2.963-0.812c-0.701-0.065-1.414-0.1-2.117-0.065c-2.166,0.104-4.247,0.703-6.352,1.154
		c-1.561,0.335-3.134,0.614-4.732,0.567c-2.411-0.071-4.816-0.238-7.126-1.026c-1.159-0.394-2.225-0.947-3.053-1.888
		c-0.665-0.755-0.981-1.653-1.114-2.627c-0.297-2.191,0.344-4.17,1.427-6.032c1.265-2.174,2.954-3.966,5.04-5.364
		c1.516-1.016,3.216-1.652,4.969-2.139c1.555-0.432,3.133-0.743,4.744-0.85c1.229-0.079,2.462-0.189,3.691-0.168
		c1.369,0.025,2.739,0.165,4.106,0.288c1.667,0.151,3.31,0.466,4.919,0.925c1.373,0.389,2.523,1.14,3.212,2.438
		c0.393,0.738,0.485,1.553,0.369,2.387C67.883,14.463,67.84,14.762,67.792,15.104z"/>
	<path d="M74.786,28.012c0.285-0.307,0.546-0.597,0.815-0.876c2.678-2.802,5.36-5.6,8.036-8.403
		c2.299-2.407,4.591-4.819,6.889-7.229c0.668-0.704,1.34-1.406,2.017-2.102c0.067-0.069,0.185-0.121,0.281-0.124
		c0.293-0.008,0.586,0.021,0.879,0.021c3.333,0.012,6.664,0.025,9.995,0.026c0.257,0,0.302,0.081,0.323,0.324
		c0.072,0.885,0.181,1.764,0.271,2.648c0.091,0.872,0.178,1.746,0.269,2.618c0.086,0.863,0.177,1.727,0.267,2.588
		c0.073,0.673,0.148,1.343,0.219,2.015c0.09,0.882,0.175,1.764,0.265,2.647c0.096,0.925,0.186,1.845,0.284,2.768
		c0.092,0.874,0.19,1.745,0.284,2.616c0.015,0.14,0.015,0.282,0.022,0.456c-0.124,0.005-0.23,0.016-0.336,0.016
		c-2.907,0-5.815,0-8.722,0.006c-0.237,0-0.361-0.036-0.405-0.306c-0.085-0.525-0.233-1.04-0.317-1.565
		c-0.043-0.246-0.146-0.298-0.377-0.298c-1.842,0.011-3.685,0.011-5.529,0.004c-1.255-0.004-2.51-0.013-3.765-0.033
		c-0.237-0.002-0.389,0.076-0.539,0.253c-0.534,0.62-1.082,1.23-1.632,1.836c-0.066,0.073-0.188,0.128-0.283,0.128
		c-3.028,0.009-6.057,0.005-9.085,0.005C74.884,28.05,74.858,28.034,74.786,28.012z M95.836,15.064
		c-0.023-0.009-0.046-0.02-0.07-0.027c-1.652,1.954-3.308,3.905-4.99,5.89c1.792,0,3.521,0,5.264,0
		C95.971,18.963,95.902,17.014,95.836,15.064z"/>
	<path d="M30.361,12.822c-0.981-0.525-1.965-0.827-2.99-1.007c-1.224-0.216-2.449-0.329-3.699-0.245
		c-1.805,0.121-3.518,0.556-5.132,1.353c-1.422,0.703-2.672,1.651-3.812,2.749c-1.364,1.311-2.753,2.601-4.329,3.651
		c-1.186,0.792-2.457,1.433-3.889,1.649c-1.502,0.228-2.977,0.144-4.359-0.567c-0.111-0.058-0.22-0.199-0.251-0.325
		c-0.309-1.221-0.273-2.472-0.2-3.71c0.142-2.401,0.936-4.604,2.3-6.585c2.27-3.296,5.387-5.33,9.293-6.17
		c1.574-0.34,3.171-0.415,4.761-0.227c3.397,0.402,6.375,1.733,8.833,4.158c1.458,1.436,2.595,3.081,3.368,4.977
		C30.283,12.594,30.307,12.669,30.361,12.822z"/>
	<path d="M144.649,27.929c1.797-4.59,3.576-9.135,5.371-13.719c-2.771,0-5.498,0-8.28,0c0.199-0.517,0.382-0.991,0.565-1.463
		c0.414-1.08,0.839-2.157,1.243-3.24c0.071-0.182,0.159-0.242,0.352-0.242c8.122,0.004,16.245,0.004,24.37,0.004
		c0.07,0,0.141,0.006,0.245,0.012c-0.195,0.575-0.38,1.135-0.572,1.692c-0.338,0.991-0.688,1.976-1.019,2.969
		c-0.071,0.222-0.183,0.287-0.411,0.286c-2.491-0.009-4.982-0.001-7.475-0.011c-0.238,0-0.354,0.066-0.443,0.293
		c-1.656,4.178-3.321,8.354-4.988,12.53c-0.115,0.289-0.171,0.681-0.39,0.828c-0.219,0.148-0.603,0.059-0.912,0.059
		c-2.432,0.003-4.862,0.001-7.295,0.001C144.906,27.929,144.797,27.929,144.649,27.929z"/>
	<path d="M2.742,22.915c1.44,0.78,2.895,1.351,4.434,1.699c1.045,0.236,2.101,0.364,3.173,0.406
		c2.379,0.093,4.652-0.351,6.826-1.295c1.563-0.68,3.007-1.574,4.432-2.511c0.76-0.5,1.579-0.931,2.415-1.294
		c1.226-0.532,2.496-0.41,3.759-0.056c0.854,0.241,1.654,0.576,2.342,1.149c0.416,0.344,0.44,0.447,0.269,0.944
		c-0.762,2.203-2.073,4.042-3.752,5.632c-2.166,2.047-4.766,3.232-7.667,3.785c-1.213,0.23-2.443,0.246-3.681,0.152
		c-2.379-0.179-4.599-0.879-6.661-2.046c-2.642-1.497-4.589-3.654-5.84-6.429C2.778,23.028,2.771,23,2.742,22.915z"/>
	<path d="M65.093,27.995c0.484-1.215,0.952-2.398,1.425-3.577c1.087-2.711,2.182-5.422,3.269-8.136
		c0.904-2.256,1.799-4.516,2.699-6.772c0.057-0.147,0.116-0.248,0.318-0.247c2.897,0.008,5.793,0.005,8.691,0.005
		c0.04,0,0.081,0.007,0.164,0.014c-0.187,0.467-0.366,0.919-0.547,1.369c-1.057,2.631-2.116,5.262-3.173,7.894
		c-1.241,3.09-2.479,6.179-3.728,9.267c-0.037,0.092-0.178,0.197-0.27,0.199c-2.897,0.009-5.794,0.009-8.692,0.006
		C65.211,28.021,65.174,28.01,65.093,27.995z"/>
	<path d="M17.485,19.354c0.842-1.289,1.925-2.342,3.213-3.185c1.396-0.914,2.92-1.507,4.57-1.72
		c1.888-0.244,3.721-0.008,5.459,0.825c0.201,0.097,0.279,0.219,0.285,0.439c0.019,0.698,0.062,1.394,0.083,2.092
		c0.007,0.23-0.024,0.459-0.038,0.712c-0.541-0.237-1.06-0.474-1.586-0.696c-1.192-0.51-2.432-0.848-3.716-1.013
		c-1.56-0.196-3.047,0.09-4.501,0.634C19.927,17.939,18.68,18.58,17.485,19.354z"/>
	<path d="M160.401,27.952c-1.341-0.026-2.275-1.013-2.271-2.259c0.004-1.392,1.128-2.306,2.396-2.266
		c1.158,0.035,2.164,1.1,2.144,2.312C162.651,26.961,161.622,27.963,160.401,27.952z M160.379,27.505
		c1.042,0.001,1.828-0.771,1.835-1.803c0.009-1-0.82-1.866-1.813-1.835c-1.041,0.032-1.821,0.78-1.826,1.832
		C158.572,26.711,159.381,27.505,160.379,27.505z"/>
	<path d="M160.963,25.922c0.183,0.331,0.357,0.644,0.531,0.96c-0.489,0.104-0.492,0.101-0.707-0.29
		c-0.073-0.133-0.161-0.26-0.211-0.4c-0.105-0.284-0.289-0.362-0.601-0.256c0,0.309,0,0.626,0,0.967c-0.189,0-0.347,0-0.526,0
		c0-0.771-0.003-1.526,0.011-2.282c0.001-0.053,0.107-0.148,0.164-0.148c0.473,0.006,0.95,0.005,1.419,0.053
		c0.393,0.042,0.547,0.268,0.562,0.69c0.014,0.369-0.134,0.557-0.517,0.66C161.06,25.883,161.031,25.896,160.963,25.922z
		 M159.985,24.806c0,0.275,0,0.481,0,0.694c0.3,0,0.581,0.026,0.854-0.014c0.1-0.015,0.231-0.183,0.245-0.294
		c0.011-0.093-0.115-0.271-0.205-0.291C160.599,24.838,160.308,24.836,159.985,24.806z"/>
</g>
<g display="none">
	<g display="inline">
		<path fill="#777777" d="M13.248,0.065V35h44.403V0.065H13.248L13.248,0.065z M54.075,31.217h-37.04V3.854h37.04V31.217
			L54.075,31.217z"/>
		<polygon fill="#777777" points="18.955,28.312 26.623,20.253 29.495,21.497 38.558,11.845 42.129,16.114 43.737,15.142 
			52.45,28.312 		"/>
		<circle fill="#777777" cx="27.812" cy="10.782" r="3.349"/>
	</g>
	<g display="inline" enable-background="new    ">
		<path fill="#777777" d="M71.623,27.635h11.42v3.964H66.477V5.938h5.146V27.635z"/>
		<path fill="#777777" d="M105.6,21.078c0,3.147-0.995,5.751-2.987,7.806c-1.991,2.056-4.579,3.084-7.763,3.084
			c-3.16,0-5.728-1.028-7.701-3.084c-1.973-2.055-2.96-4.658-2.96-7.806v-4.619c0-3.136,0.983-5.736,2.952-7.798
			c1.968-2.062,4.532-3.093,7.693-3.093c3.183,0,5.773,1.03,7.771,3.093c1.997,2.062,2.996,4.662,2.996,7.798V21.078z
			 M100.453,16.438c0-2.002-0.499-3.644-1.497-4.926c-0.999-1.284-2.373-1.925-4.123-1.925c-1.752,0-3.108,0.639-4.072,1.917
			s-1.443,2.921-1.443,4.935v4.661c0,2.038,0.485,3.697,1.461,4.979c0.977,1.285,2.331,1.927,4.071,1.927
			c1.763,0,3.136-0.642,4.123-1.927c0.988-1.281,1.48-2.94,1.48-4.979V16.438z"/>
		<path fill="#777777" d="M129.321,28.091c-0.766,1.012-1.954,1.909-3.568,2.696c-1.616,0.787-3.657,1.181-6.125,1.181
			c-3.136,0-5.698-0.976-7.685-2.924c-1.983-1.952-2.978-4.482-2.978-7.597v-5.358c0-3.102,0.955-5.63,2.865-7.587
			c1.908-1.956,4.366-2.934,7.374-2.934c3.126,0,5.52,0.761,7.181,2.282c1.663,1.521,2.513,3.522,2.547,6.001l-0.034,0.105h-4.847
			c-0.096-1.363-0.53-2.44-1.305-3.234c-0.774-0.793-1.908-1.189-3.401-1.189c-1.574,0-2.843,0.608-3.808,1.823
			c-0.964,1.215-1.442,2.778-1.442,4.692v5.387c0,1.949,0.498,3.532,1.497,4.747c0.998,1.215,2.343,1.822,4.035,1.822
			c1.198,0,2.161-0.124,2.891-0.369c0.728-0.246,1.281-0.551,1.657-0.913v-4.747h-4.548v-3.56h9.693V28.091z"/>
		<path fill="#777777" d="M154.381,21.078c0,3.147-0.995,5.751-2.987,7.806c-1.99,2.056-4.578,3.084-7.763,3.084
			c-3.16,0-5.728-1.028-7.7-3.084c-1.976-2.055-2.961-4.658-2.961-7.806v-4.619c0-3.136,0.983-5.736,2.952-7.798
			c1.967-2.062,4.531-3.093,7.692-3.093c3.183,0,5.773,1.03,7.771,3.093c1.996,2.062,2.995,4.662,2.995,7.798V21.078z
			 M149.234,16.438c0-2.002-0.499-3.644-1.497-4.926c-0.999-1.284-2.373-1.925-4.123-1.925c-1.752,0-3.107,0.639-4.072,1.917
			c-0.964,1.277-1.444,2.921-1.444,4.935v4.661c0,2.038,0.488,3.697,1.462,4.979c0.977,1.285,2.332,1.927,4.071,1.927
			c1.763,0,3.137-0.642,4.123-1.927c0.988-1.281,1.48-2.94,1.48-4.979V16.438z"/>
	</g>
</g>
</svg>
